<?xml version="1.0" encoding="UTF-8" standalone="no"?>
<svg
   width="1024"
   height="1024"
   viewBox="0 0 1024 1024"
   version="1.1"
   id="svg2"
   sodipodi:docname="trace.svg"
   inkscape:version="1.4.2 (f4327f4, 2025-05-13)"
   inkscape:export-filename="trace.png"
   inkscape:export-xdpi="96"
   inkscape:export-ydpi="96"
   xmlns:inkscape="http://www.inkscape.org/namespaces/inkscape"
   xmlns:sodipodi="http://sodipodi.sourceforge.net/DTD/sodipodi-0.dtd"
   xmlns="http://www.w3.org/2000/svg"
   xmlns:svg="http://www.w3.org/2000/svg">
  <defs
     id="defs2" />
  <sodipodi:namedview
     id="namedview2"
     pagecolor="#ffffff"
     bordercolor="#000000"
     borderopacity="0.25"
     inkscape:showpageshadow="2"
     inkscape:pageopacity="0.0"
     inkscape:pagecheckerboard="0"
     inkscape:deskcolor="#d1d1d1"
     inkscape:zoom="0.88623047"
     inkscape:cx="320.4584"
     inkscape:cy="397.75207"
     inkscape:window-width="3840"
     inkscape:window-height="2054"
     inkscape:window-x="-11"
     inkscape:window-y="-11"
     inkscape:window-maximized="1"
     inkscape:current-layer="svg2"
     showguides="true" />
  <rect
     style="fill:#e6e6e6;fill-opacity:1;stroke:none;stroke-width:2;stroke-linecap:round;stroke-linejoin:round;stroke-dasharray:none;stroke-opacity:1;paint-order:markers fill stroke"
     id="rect19"
     width="1024"
     height="1024"
     x="0"
     y="0" />
  <path
     d="m 144.964,595.893 -18.536,10.607 -4.43,10 c -2.436,5.5 -8.322,18.55 -13.08,29 -29.068,63.841 -37.041,81.71 -36.637,82.114 0.249,0.249 3.925,-0.5 8.169,-1.664 4.244,-1.164 7.849,-1.967 8.011,-1.783 0.163,0.183 -1.433,7.083 -3.546,15.333 -2.112,8.25 -3.858,15.563 -3.878,16.25 -0.029,0.974 6.81,1.25 30.963,1.25 17.05,0 31,-0.206 31,-0.457 0,-0.252 -3.827,-10.111 -8.505,-21.911 l -8.505,-21.453 17.133,-26.84 c 9.423,-14.761 17.911,-27.964 18.862,-29.339 1.514,-2.189 1.806,-6.422 2.346,-34 0.339,-17.325 0.291,-32.898 -0.107,-34.607 l -0.724,-3.107 -18.536,10.607"
     id="path12"
     style="stroke:none;stroke-opacity:1;stroke-width:2;stroke-dasharray:none;fill:#ffffff" />
  <path
     d="m 330.5,572.585 c -8.11,10.075 -30.388,31.797 -41.689,40.648 -0.89,0.697 -2.754,4.642 -4.142,8.767 -1.388,4.125 -4.559,13.036 -7.046,19.801 l -4.522,12.302 11.154,14.198 c 27.709,35.273 36.62,46.692 41.747,53.498 l 5.498,7.299 7.076,-0.65 7.077,-0.65 2.777,14.601 2.777,14.601 h 27.464 27.465 l -2.265,-3.25 c -7.108,-10.201 -20.936,-29.503 -32.417,-45.25 -7.218,-9.9 -19.089,-26.292 -26.381,-36.426 l -13.259,-18.425 2.343,-1.802 c 1.289,-0.992 2.736,-1.813 3.216,-1.825 1.517,-0.038 15.834,-9.005 23.32,-14.604 14.014,-10.482 24.892,-21.945 36.458,-38.418 4.762,-6.782 8.284,-13 7.364,-13 -0.295,0 -15.33,-4.275 -33.411,-9.5 -18.081,-5.225 -33.264,-9.471 -33.739,-9.435 -0.476,0.036 -3.565,3.42 -6.865,7.52"
     id="path11"
     style="stroke:none;stroke-opacity:1;stroke-width:2;stroke-dasharray:none;fill:#ffffff" />
  <path
     d="m 702,562.731 c -6.15,2.352 -28.823,13.237 -39.06,18.752 -11.512,6.202 -29.94,17.346 -29.94,18.105 0,0.18 1.913,1.418 4.25,2.75 2.337,1.332 13.162,7.483 24.055,13.669 l 19.805,11.247 -1.886,2.123 c -1.037,1.168 -7.336,8.477 -13.996,16.243 l -12.11,14.12 -11.117,-3.37 c -6.113,-1.853 -11.877,-3.349 -12.808,-3.324 -0.979,0.026 -2.544,1.82 -3.71,4.25 -1.109,2.312 -7.15,14.213 -13.425,26.446 -6.274,12.233 -11.216,22.406 -10.983,22.607 0.234,0.201 15.451,-1.387 33.815,-3.529 27.114,-3.164 33.837,-4.247 35.765,-5.763 5.142,-4.045 76.345,-74.943 76.345,-76.018 0,-0.631 -4.348,-7.31 -9.662,-14.843 -5.314,-7.533 -14.426,-20.539 -20.25,-28.902 C 707.02,562.836 705.518,561.386 702,562.731"
     id="path10"
     style="fill:#e6e6e6;fill-opacity:1;stroke:none;stroke-opacity:1" />
  <path
     d="m 353.914,336.419 c -0.23,0.23 -10.639,2.259 -23.13,4.508 -35.719,6.431 -49.543,10.402 -67.284,19.325 -15.795,7.945 -29.937,19.073 -43.5,34.227 -7.348,8.211 -7.843,8.553 -24.5,16.953 -20.095,10.133 -32.612,18.765 -45.049,31.068 -14.973,14.811 -26.225,33.132 -32.858,53.5 l -3.093,9.5 -9,0.699 c -13.647,1.06 -22.81,4.974 -29.826,12.74 -2.012,2.227 -6.172,9.114 -9.246,15.305 -3.073,6.191 -7.805,14.59 -10.515,18.665 -2.71,4.075 -4.706,7.632 -4.434,7.903 0.271,0.271 6.237,0.534 13.257,0.584 19.023,0.136 32.249,-4.186 43.357,-14.167 7.437,-6.681 10.411,-11.929 14.954,-26.381 9.119,-29.009 20.867,-47.145 39.691,-61.272 8.063,-6.052 26.821,-16.351 27.869,-15.302 0.262,0.262 -0.208,2.22 -1.046,4.351 -0.837,2.131 -2.756,8.6 -4.264,14.375 l -2.741,10.5 -0.31,85.75 c -0.205,56.77 0.028,85.75 0.691,85.75 1.555,0 29.594,-10.376 38.883,-14.39 21.071,-9.103 46.194,-24.322 63.517,-38.476 16.361,-13.37 31.954,-30.5 43.813,-48.134 9.804,-14.579 20.305,-38.904 24.381,-56.478 4.058,-17.497 4.432,-24.994 4.451,-89.272 0.017,-59.704 -0.057,-62.25 -1.815,-62.25 -1.009,0 -2.022,0.189 -2.253,0.419"
     id="path7"
     style="stroke:none;fill:#ffffff;fill-opacity:1;stroke-opacity:1;stroke-width:2;stroke-dasharray:none" />
  <path
     d="m 509.743,265.535 c -44.636,27.913 -84.564,48.003 -121.243,61.002 l -12,4.253 -0.038,64.855 c -0.021,35.67 -0.396,68.455 -0.833,72.855 -2.243,22.603 -8.567,44.026 -19.318,65.447 -3.988,7.945 -7.072,14.625 -6.854,14.844 0.219,0.218 6.168,2.113 13.22,4.211 21.734,6.464 94.436,28.979 101.575,31.456 3.714,1.289 6.937,2.046 7.161,1.682 0.225,-0.363 2.673,-6.281 5.441,-13.15 8.528,-21.169 44.032,-106.628 51.819,-124.729 0.418,-0.972 -8.619,-1.296 -41.942,-1.5 l -42.475,-0.261 6.753,-16 c 3.714,-8.8 12.025,-28.6 18.468,-44 6.443,-15.4 18.939,-45.1 27.769,-66 C 512.358,284.729 523,259.035 523,258.318 c 0,-0.875 -2.453,0.461 -13.257,7.217"
     id="path6"
     style="stroke:none;stroke-opacity:1;stroke-width:2;stroke-dasharray:none;fill:#ffffff" />
  <path
     d="m 0.496,512.5 c 0,281.6 0.114,396.651 0.254,255.668 0.14,-140.982 0.14,-371.382 0,-512 C 0.61,115.551 0.496,230.9 0.496,512.5"
     id="path3"
     style="fill:#e6e6e6;stroke:none" />
  <path
     style="fill:#ffffff;fill-opacity:1;stroke:none;stroke-width:2;stroke-linecap:round;stroke-linejoin:round;stroke-dasharray:none;stroke-opacity:1;paint-order:fill markers stroke"
     d="m 513.92713,632.99042 -32.70653,94.31954 14.14734,-3.23047 -6.84257,31.80422 h 61.44997 l -16.88514,-42.24178 52.51442,-92.46428 z"
     id="path13"
     sodipodi:nodetypes="cccccccc" />
  <path
     id="path19"
     style="fill:#ffffff;fill-opacity:1;stroke:none;stroke-width:2;stroke-linecap:round;stroke-linejoin:round;stroke-dasharray:none;stroke-opacity:1;paint-order:markers fill stroke"
     d="M 742.1875 229.48242 C 719.64885 276.37364 713.95881 303.53571 727.87305 341.26367 C 712.24801 318.74065 702.17072 305.14197 712.13086 258.74805 C 698.08256 248.97129 637.51451 234.4908 637.25 235.54883 L 561.05078 379.48242 L 651.91797 380.54492 L 444.21094 656.95508 C 444.21094 656.95508 491.39028 628.10666 512.39062 618.0957 C 533.39098 608.08474 579.62342 607.16545 597.96875 599.58984 C 616.31407 592.01423 677.48456 549.26831 723.0293 537.12305 C 705.01848 513.9094 686.55019 492.61178 690.64453 437.65625 C 700.34298 476.07073 721.01588 509.93219 751.5293 530.91602 C 826.74485 521.64452 869.58804 531.85867 924.76953 552.23438 C 956.83238 534.886 968.11449 511.46253 976.0332 487.05664 C 954.60593 483.64143 938.22398 479.65074 932.88281 470.25 C 918.26568 457.7107 876.35556 422.21684 863.20703 405.52344 C 850.43357 384.25028 848.33939 360.79803 833.58594 338.10156 C 823.13326 322.89033 808.14259 311.12388 792.29688 300.00391 C 786.95215 268.37445 770.51635 256.30867 742.1875 229.48242 z M 787.04102 377.44141 C 793.53616 378.79533 809.85571 383.75248 813.06445 386.89062 C 816.27319 390.02877 830.90625 412.49219 830.90625 412.49219 C 830.90625 412.49219 801.54498 405.62883 796.98438 402.47656 C 792.42378 399.32429 786.61305 377.65539 787.04102 377.44141 z " />
  <path
     style="fill:#ffffff;fill-opacity:1;stroke:none;stroke-width:2;stroke-linecap:round;stroke-linejoin:round;stroke-dasharray:none;stroke-opacity:1;paint-order:markers fill stroke"
     d="m 632.42072,599.50812 c 20.00015,-13.30558 45.15831,-26.02003 72.10853,-38.19858 7.81942,7.68 30.68431,39.76109 42.48718,59.64164 -24.75497,26.42713 -51.08375,51.80506 -77.39449,77.19502 -22.70487,4.44714 -46.09052,6.04789 -68.91701,8.42762 7.72806,-17.40628 15.58492,-34.90008 27.42718,-54.10633 l 24.98366,7.03133 27.47704,-32.36406 z"
     id="path16"
     sodipodi:nodetypes="ccccccccc" />
  <path
     style="fill:#e6e6e6;fill-opacity:1;stroke:#ffffff;stroke-width:5;stroke-linecap:round;stroke-linejoin:round;stroke-dasharray:none;stroke-opacity:1;paint-order:markers fill stroke"
     d="m 869.59535,486.70816 c 17.50284,-1.88257 50.26725,-40.81919 56.75034,-70.38149 1.8579,20.16985 -2.89634,56.9468 -18.86049,79.08326 -15.6594,25.55266 -49.25773,3.6027 -37.88985,-8.70177 z"
     id="path17"
     sodipodi:nodetypes="cccc" />
  <path
     style="fill:#ffffff;fill-opacity:1;stroke:none;stroke-width:2;stroke-linecap:round;stroke-linejoin:round;stroke-dasharray:none;stroke-opacity:1;paint-order:fill markers stroke"
     d="m 262.32247,360.85179 67.64338,-47.43134 c -2.12424,-1.92239 -4.11202,-3.8334 -7.77934,-5.88438 l 71.75945,-24.93379 c -4.69392,-3.83214 -11.77555,-6.86838 -18.80008,-9.92365 l 83.57807,-32.9126 c -5.57646,-6.40812 -9.00703,-8.01285 -16.35657,-11.96822 l 84.57543,-9.77405 c -1.74584,-6.27793 -8.62573,-17.12629 -15.55869,-23.33803 l 100.53306,3.78994 c -0.59721,-7.24742 -3.61254,-14.49484 -7.3804,-21.74227 21.56495,8.58623 65.86575,35.64317 72.67103,40.05105 6.80528,4.40789 31.85932,40.09164 34.92261,41.96302 -8.1035,-4.92298 -54.44275,-18.72648 -74.01668,-23.20504 C 618.5076,235.29427 533.21498,253.03518 522.40926,258.13726 468.50527,291.31708 426.44771,314.46403 376.5,330.79 c -34.26774,11.02846 -78.57516,11.36461 -114.17753,30.06179 z"
     id="path18"
     sodipodi:nodetypes="ccccccccccczccccc" />
</svg>
